<svg xmlns="http://www.w3.org/2000/svg" viewBox="0 0 128 128">
  <defs>
    <linearGradient id="ls_body" x1="0" y1="0" x2="1" y2="1">
      <stop offset="0" stop-color="#46536a"/>
      <stop offset="1" stop-color="#2b3444"/>
    </linearGradient>
  </defs>
  <ellipse cx="64" cy="100" rx="40" ry="5" fill="rgba(15, 23, 42, 0.18)"/>
  <g transform="rotate(-10 64 64)">
    <circle cx="28" cy="64" r="11" fill="#f87171" opacity="0.3"/>
    <circle cx="46" cy="64" r="11" fill="#4ade80" opacity="0.3"/>
    <circle cx="64" cy="64" r="11" fill="#60a5fa" opacity="0.3"/>
    <circle cx="82" cy="64" r="11" fill="#c084fc" opacity="0.3"/>
    <circle cx="100" cy="64" r="11" fill="#fbbf24" opacity="0.3"/>
    <rect x="14" y="56" width="100" height="16" rx="8" fill="url(#ls_body)" stroke="rgba(30, 41, 59, 0.35)" stroke-width="2" stroke-linejoin="round"/>
    <rect x="25" y="61" width="6" height="6" rx="1.5" fill="#f87171"/>
    <rect x="43" y="61" width="6" height="6" rx="1.5" fill="#4ade80"/>
    <rect x="61" y="61" width="6" height="6" rx="1.5" fill="#60a5fa"/>
    <rect x="79" y="61" width="6" height="6" rx="1.5" fill="#c084fc"/>
    <rect x="97" y="61" width="6" height="6" rx="1.5" fill="#fbbf24"/>
    <rect x="36" y="62.5" width="3" height="3" fill="#b48a5a" opacity="0.8"/>
    <rect x="54" y="62.5" width="3" height="3" fill="#b48a5a" opacity="0.8"/>
    <rect x="72" y="62.5" width="3" height="3" fill="#b48a5a" opacity="0.8"/>
    <rect x="90" y="62.5" width="3" height="3" fill="#b48a5a" opacity="0.8"/>
  </g>
</svg>
