<svg xmlns="http://www.w3.org/2000/svg" viewBox="0 0 128 128">
  <ellipse cx="64" cy="102" rx="40" ry="5" fill="rgba(15, 23, 42, 0.18)"/>
  <path d="M10 42 C 30 60, 46 34, 64 50 C 80 64, 98 38, 118 50" fill="none" stroke="#4b5768" stroke-width="2.5" stroke-linecap="round"/>
  <g stroke="#4b5768" stroke-width="1.8">
    <line x1="26" y1="50" x2="26" y2="59"/>
    <line x1="46" y1="42" x2="46" y2="49"/>
    <line x1="66" y1="52" x2="66" y2="59"/>
    <line x1="88" y1="50" x2="88" y2="55"/>
    <line x1="106" y1="44" x2="106" y2="51"/>
  </g>
  <circle cx="26" cy="66" r="12" fill="#f87171" opacity="0.28"/>
  <circle cx="46" cy="56" r="12" fill="#fbbf24" opacity="0.28"/>
  <circle cx="66" cy="66" r="12" fill="#4ade80" opacity="0.28"/>
  <circle cx="88" cy="62" r="12" fill="#60a5fa" opacity="0.28"/>
  <circle cx="106" cy="58" r="12" fill="#c084fc" opacity="0.28"/>
  <g stroke="rgba(30, 41, 59, 0.35)" stroke-width="2">
    <circle cx="26" cy="66" r="6.5" fill="#ef6a6a"/>
    <circle cx="46" cy="56" r="6.5" fill="#eab308"/>
    <circle cx="66" cy="66" r="6.5" fill="#3fbf70"/>
    <circle cx="88" cy="62" r="6.5" fill="#5b93e8"/>
    <circle cx="106" cy="58" r="6.5" fill="#b06fe8"/>
  </g>
</svg>
